
        <svg xmlns="http://www.w3.org/2000/svg" xmlns:xlink="http://www.w3.org/1999/xlink" version="1.1" width="3192.3076923076924" height="916.6778821799612" viewBox="0 0 3192.3076923076924 916.6778821799612">
			
			<g transform="scale(9.615384615384615) translate(10, 10)">
				<defs id="SvgjsDefs1506"><linearGradient id="SvgjsLinearGradient1513"><stop id="SvgjsStop1514" stop-color="#8f5e25" offset="0"/><stop id="SvgjsStop1515" stop-color="#fbf4a1" offset="0.5"/><stop id="SvgjsStop1516" stop-color="#8f5e25" offset="1"/></linearGradient><linearGradient id="SvgjsLinearGradient1517"><stop id="SvgjsStop1518" stop-color="#8f5e25" offset="0"/><stop id="SvgjsStop1519" stop-color="#fbf4a1" offset="0.5"/><stop id="SvgjsStop1520" stop-color="#8f5e25" offset="1"/></linearGradient><linearGradient id="SvgjsLinearGradient1521"><stop id="SvgjsStop1522" stop-color="#8f5e25" offset="0"/><stop id="SvgjsStop1523" stop-color="#fbf4a1" offset="0.5"/><stop id="SvgjsStop1524" stop-color="#8f5e25" offset="1"/></linearGradient></defs><g id="SvgjsG1507" featureKey="symbolFeature-0" transform="matrix(0.8999997425080083,0,0,0.8999997425080083,-8.99998970032033,-6.99997940064066)" fill="#fff"><title xmlns="http://www.w3.org/2000/svg"/><path xmlns="http://www.w3.org/2000/svg" d="M89.88,46.91c-2.95.32-5.9.64-8.86.94q4.2-2.45,8.33-5.06c-.12-.65-.25-1.29-.4-1.93-2.48,2.23-5,4.42-7.54,6.54q3.7-3.75,7.26-7.67c-.17-.65-.36-1.28-.56-1.91q-3.23,4.71-6.66,9.25Q84.74,42,87.76,36.78c-.22-.65-.47-1.29-.73-1.93-1.9,4.32-3.91,8.57-6,12.71q2.34-8.23,4.13-16.71c-.38-.69-.78-1.37-1.19-2q-1.11,8.9-2.82,17.64,1.36-9.35,2-18.84c-.5-.73-1-1.44-1.55-2.13.06,6.94-.16,13.88-.66,20.77.21-7.31.11-14.65-.31-22-.65-.77-1.33-1.52-2-2.24,1.11,8.07,1.83,16.2,2.17,24.32a258.63,258.63,0,0,0-3.58-25.7q-1.34-1.23-2.76-2.34a253.46,253.46,0,0,1,6.11,27.81,249.83,249.83,0,0,0-7.7-29,36.51,36.51,0,0,0-3.78-2.33A245.2,245.2,0,0,1,80.73,47.58,233.2,233.2,0,0,0,57.24,10.65,40.2,40.2,0,0,0,50,10h0A228.16,228.16,0,0,1,80.32,47.14,227.21,227.21,0,0,0,44.7,10.35a39.55,39.55,0,0,0-8.92,2.25,232.89,232.89,0,0,1,44.4,34.68A242.42,242.42,0,0,0,34.47,16.54c-1.15-.6-2.31-1.18-3.46-1.75A40.13,40.13,0,0,0,22.48,21q5.36,1.76,10.66,3.73A282.22,282.22,0,0,1,80.32,47.62,334,334,0,0,0,17.8,26.27a39.82,39.82,0,0,0-5.25,9.64A580.41,580.41,0,0,1,80.3,47.81c-23-2.46-46.35-4.29-69.57-5.47A40.28,40.28,0,0,0,10,50c0,1.07,0,2.14.13,3.19C33.69,52.11,57.33,50.36,80.7,48A282.92,282.92,0,0,1,32.92,70.22q-7.08,2.52-14.26,4.63a39.66,39.66,0,0,0,7.56,7.31q4-1.78,8-3.75a240,240,0,0,0,46.13-30A227.88,227.88,0,0,1,35.19,83.6c-1.15.68-2.3,1.34-3.46,2a39.83,39.83,0,0,0,8.76,3.26A221.18,221.18,0,0,0,80.28,48.72a222.19,222.19,0,0,1-34.71,41A40.41,40.41,0,0,0,50,90c1.1,0,2.19,0,3.26-.13A227.23,227.23,0,0,0,80.73,48.25a240.44,240.44,0,0,1-14.6,38.36,37.8,37.8,0,0,0,4.47-2.32,245.74,245.74,0,0,0,10-34.94A250,250,0,0,1,73,82.75a40.91,40.91,0,0,0,3.29-2.57,256.94,256.94,0,0,0,4.5-30.63,256.27,256.27,0,0,1-2.88,29.13c.86-.83,1.68-1.71,2.46-2.62A257,257,0,0,0,81,49.45c.63,8.31.85,16.68.67,25,.65-.84,1.27-1.7,1.85-2.58C83,64.46,82.25,57,81.17,49.68c1.31,6.93,2.33,14,3.07,21q.75-1.23,1.41-2.52Q83.72,58.06,81,48.24c2.44,4.77,4.74,9.67,6.88,14.66.27-.78.51-1.58.73-2.38q-3.43-6-7.18-11.82Q85.31,53.8,89,59.14c.18-.76.33-1.53.47-2.3q-3.87-4.26-7.88-8.31,4.08,3.53,8,7.23c.1-.73.19-1.47.25-2.21q-4.19-2.76-8.44-5.36,4.29,2,8.54,4.06c0-.7.06-1.41.06-2.12Q85.71,49,81.42,48L90,49C90,48.27,89.93,47.59,89.88,46.91Z"/></g><g id="SvgjsG1508" featureKey="nameFeature-0" transform="matrix(0.8228194706487287,0,0,0.8228194706487287,88.99481654528043,-9.369139347630316)" fill="#fff"><path d="M3.6523 40 l0 -28.223 l5.8594 0 l0 28.223 l-5.8594 0 z M36.982734375 11.777000000000001 l5.8398 0 l0 28.223 l-6.7773 0 l-12.5 -20.176 l0 20.176 l-5.8398 0 l0 -28.223 l6.6992 0 l12.578 20.059 l0 -20.059 z M70.3128125 11.777000000000001 l5.8398 0 l0 28.223 l-6.7773 0 l-12.5 -20.176 l0 20.176 l-5.8398 0 l0 -28.223 l6.6992 0 l12.578 20.059 l0 -20.059 z M96.864890625 40.39063 c-8.3008 0 -14.434 -5.6641 -14.434 -14.512 c0 -8.8672 6.1328 -14.492 14.434 -14.492 c8.2813 0 14.414 5.625 14.414 14.492 c0 8.8477 -6.1328 14.512 -14.414 14.512 z M96.864890625 35.0195 c4.8633 0 8.5938 -3.418 8.5938 -9.1406 c0 -5.7031 -3.7305 -9.1016 -8.5938 -9.1016 s-8.5938 3.3984 -8.5938 9.1016 c0 5.7227 3.7305 9.1406 8.5938 9.1406 z M135.52778125 11.777000000000001 l6.2305 0 l-10.43 28.223 l-6.4453 0 l-10.371 -28.223 l6.2109 0 l7.4023 21.387 z M165.790953125 40 l-2.0508 -5.8203 l-11.855 0 l-2.0508 5.8203 l-5.9961 0 l10.391 -28.223 l7.168 0 l10.391 28.223 l-5.9961 0 z M153.603953125 29.277 l8.418 0 l-4.1992 -11.973 z M193.30125 11.777000000000001 l0 5.1563 l-6.6992 0 l0 23.066 l-5.8008 0 l0 -23.066 l-6.7383 0 l0 -5.1563 l19.238 0 z M198.642534375 40 l0 -28.223 l5.8594 0 l0 28.223 l-5.8594 0 z M225.19496875 40.39063 c-8.3008 0 -14.434 -5.6641 -14.434 -14.512 c0 -8.8672 6.1328 -14.492 14.434 -14.492 c8.2813 0 14.414 5.625 14.414 14.492 c0 8.8477 -6.1328 14.512 -14.414 14.512 z M225.19496875 35.0195 c4.8633 0 8.5938 -3.418 8.5938 -9.1406 c0 -5.7031 -3.7305 -9.1016 -8.5938 -9.1016 s-8.5938 3.3984 -8.5938 9.1016 c0 5.7227 3.7305 9.1406 8.5938 9.1406 z M265.185859375 11.777000000000001 l5.8398 0 l0 28.223 l-6.7773 0 l-12.5 -20.176 l0 20.176 l-5.8398 0 l0 -28.223 l6.6992 0 l12.578 20.059 l0 -20.059 z"/></g><g id="SvgjsG1509" featureKey="sloganFeature-0" transform="matrix(2.698063532656425,0,0,2.698063532656425,91.99999935673152,20.887515080552184)" fill="#fff"><path d="M4.42 6.1 l0 13.9 l-1.16 0 l0 -13.9 l-3.26 0 l0 -1.1 l7.68 0 l0 1.1 l-3.26 0 z M8.780000000000001 20 l0 -15 l7.36 0 l0 1.16 l-6.32 0 l0 5.7 l6.26 0 l0 0.92 l-6.26 0 l0 6.06 l6.46 0 l0 1.16 l-7.5 0 z M23.8 16.22 c-0.01334 0.66666 -0.076582 1.25 -0.18992 1.75 s-0.30668 0.91334 -0.58002 1.24 s-0.63334 0.57 -1.08 0.73 s-1.01 0.24 -1.69 0.24 c-1.1733 0 -2.0266 -0.32666 -2.56 -0.98 s-0.8 -1.6467 -0.8 -2.98 l0 -7.4 c0 -1.3333 0.27 -2.3266 0.81 -2.98 s1.4633 -0.98 2.77 -0.98 c1.1733 0 2.0134 0.32666 2.52 0.98 s0.77332 1.6467 0.79998 2.98 l0.02 0.92 l-0.92 0 l-0.02 -1.16 c0 -0.33334 -0.03334 -0.67 -0.1 -1.01 s-0.18666 -0.65 -0.36 -0.93 s-0.41668 -0.50666 -0.73002 -0.68 s-0.73 -0.26 -1.25 -0.26 c-0.50666 0 -0.93 0.08 -1.27 0.24 s-0.61 0.38 -0.81 0.66 s-0.33666 0.61 -0.41 0.99 s-0.11 0.79 -0.11 1.23 l0.04 7.5 c0 0.92 0.17 1.64 0.51 2.16 s0.96334 0.78 1.87 0.78 c0.52 0 0.95 -0.07 1.29 -0.21 s0.60666 -0.33666 0.8 -0.59 s0.33 -0.56 0.41 -0.92 s0.12 -0.75334 0.12 -1.18 l0.02 -1.3 l0.92 0 z M32.48 20 l-0.02 -6.98 l-5.48 0 l0.02 6.98 l-1.16 0 l0 -15 l1.16 0 l-0.02 6.96 l5.48 0 l0.02 -6.96 l1.18 0 l0 15 l-1.18 0 z M42.46 20.18 c-1.2667 0 -2.2134 -0.33334 -2.84 -1 s-0.94 -1.6533 -0.94 -2.96 l0 -7.4 c0 -1.3333 0.31334 -2.3266 0.94 -2.98 s1.64 -0.98 3.04 -0.98 c1.32 0 2.2866 0.33 2.9 0.99 s0.92 1.6367 0.92 2.93 l0 1.08 l-1.08 0 l0 -1.28 c0 -0.33334 -0.04 -0.67 -0.12 -1.01 s-0.22334 -0.65 -0.43 -0.93 s-0.49 -0.50666 -0.85 -0.68 s-0.82 -0.26 -1.38 -0.26 s-1.0233 0.07666 -1.39 0.23 s-0.66 0.37 -0.88 0.65 s-0.37666 0.61 -0.47 0.99 s-0.14 0.79666 -0.14 1.25 l0 7.48 c0 0.46666 0.04666 0.88332 0.14 1.25 s0.25 0.67666 0.47 0.93 s0.50666 0.44668 0.86 0.58002 s0.78334 0.2 1.29 0.2 c0.56 0 1.0267 -0.07 1.4 -0.21 s0.67334 -0.33666 0.9 -0.59 s0.39 -0.56 0.49 -0.92 s0.15 -0.75334 0.15 -1.18 l0 -2.94 l-3.14 -0.02 l0 -0.98 l4.18 0.02 l0 3.78 c0 1.32 -0.30666 2.31 -0.92 2.97 s-1.6467 0.99 -3.1 0.99 z M47.879999999999995 20 l0 -15 l7.36 0 l0 1.16 l-6.32 0 l0 5.7 l6.26 0 l0 0.92 l-6.26 0 l0 6.06 l6.46 0 l0 1.16 l-7.5 0 z M56.779999999999994 20 l0 -15 l7.36 0 l0 1.16 l-6.32 0 l0 5.7 l6.26 0 l0 0.92 l-6.26 0 l0 6.06 l6.46 0 l0 1.16 l-7.5 0 z M72.24 20 l-3.52 -8.14 l-2.04 3.06 l0 5.08 l-1 0 l0 -15 l1 0 l0 7.9 l5.08 -7.9 l1.24 0 l-3.52 6.1 l3.92 8.9 l-1.16 0 z M77.71999999999998 20.18 c-0.65334 0 -1.2335 -0.086738 -1.7401 -0.26008 s-0.93332 -0.45 -1.28 -0.83 s-0.60332 -0.87666 -0.76998 -1.49 s-0.23666 -1.3533 -0.21 -2.22 l1.2 0 c0 0.42666 0.02 0.87 0.06 1.33 s0.14666 0.88 0.32 1.26 s0.43668 0.69 0.79002 0.93 s0.84334 0.36 1.47 0.36 c0.53334 0 0.98668 -0.08 1.36 -0.24 s0.67668 -0.37334 0.91002 -0.64 s0.39668 -0.58 0.49002 -0.94 s0.14 -0.73334 0.14 -1.12 c0 -0.45334 -0.08334 -0.85 -0.25 -1.19 s-0.38666 -0.64334 -0.66 -0.91 s-0.59334 -0.50332 -0.96 -0.70998 s-0.75 -0.39 -1.15 -0.55 c-0.64 -0.25334 -1.2 -0.50334 -1.68 -0.75 s-0.87334 -0.52332 -1.18 -0.82998 s-0.53666 -0.66332 -0.69 -1.07 s-0.23 -0.90332 -0.23 -1.49 c0 -1.3333 0.35 -2.3266 1.05 -2.98 s1.7033 -0.98 3.01 -0.98 c1.1333 0 2.03 0.33 2.69 0.99 s0.99 1.65 0.99 2.97 l0 1.1 l-1.12 0 l0 -1.2 c0 -0.41334 -0.05 -0.79668 -0.15 -1.15 s-0.25666 -0.66334 -0.47 -0.93 s-0.48334 -0.47666 -0.81 -0.63 s-0.71666 -0.23 -1.17 -0.23 c-1.0667 0 -1.83 0.28 -2.29 0.84 s-0.67 1.3133 -0.63 2.26 c0.01334 0.41334 0.09 0.76668 0.23 1.06 s0.32666 0.55 0.56 0.77 s0.51334 0.41666 0.84 0.59 s0.69 0.34668 1.09 0.52002 c0.46666 0.2 0.93 0.41334 1.39 0.64 s0.89 0.50666 1.29 0.84 c0.4 0.34666 0.73 0.75 0.99 1.21 s0.39 1.03 0.39 1.71 c0 1.32 -0.33666 2.31 -1.01 2.97 s-1.61 0.99 -2.81 0.99 z"/></g>
			</g>
		</svg>
	